<svg width="16" height="16" viewBox="0 0 16 16" fill="none" xmlns="http://www.w3.org/2000/svg">
<path d="M7.67969 1L14.3594 7.67969L7.67969 14.3594L6.50781 13.1875L11.1562 8.5H1V6.85938H11.1562L6.50781 2.17188L7.67969 1Z" fill="white"/>
<path fill-rule="evenodd" clip-rule="evenodd" d="M6.97258 0.292893C7.3631 -0.0976311 7.99627 -0.0976311 8.38679 0.292893L15.0665 6.97258C15.457 7.3631 15.457 7.99627 15.0665 8.38679L8.38679 15.0665C7.99627 15.457 7.3631 15.457 6.97258 15.0665L5.80071 13.8946C5.41134 13.5052 5.41002 12.8744 5.79775 12.4834L8.75625 9.5H1C0.447715 9.5 0 9.05229 0 8.5V6.85938C0 6.30709 0.447715 5.85938 1 5.85938H8.75625L5.79775 2.87602C5.41002 2.48502 5.41134 1.85414 5.80071 1.46477L6.97258 0.292893ZM11.1562 6.85938H1V8.5H11.1562L6.50781 13.1875L7.67969 14.3594L14.3594 7.67969L7.67969 1L6.50781 2.17188L11.1562 6.85938Z" fill="white"/>
</svg>
