<svg width="318" height="204" viewBox="0 0 318 204" fill="none" xmlns="http://www.w3.org/2000/svg">
<rect width="318" height="204" fill="#292F2D"/>
<path d="M144.938 107L131.062 125H186.938L168.938 101L155.062 119L144.938 107ZM195 128.938C195 131.062 194.188 132.938 192.562 134.562C190.938 136.188 189.062 137 186.938 137H131.062C128.938 137 127.062 136.188 125.438 134.562C123.812 132.938 123 131.062 123 128.938V73.0625C123 70.9375 123.812 69.0625 125.438 67.4375C127.062 65.8125 128.938 65 131.062 65H186.938C189.062 65 190.938 65.8125 192.562 67.4375C194.188 69.0625 195 70.9375 195 73.0625V128.938Z" fill="#0A1A17"/>
</svg>
