<svg width="48" height="48" viewBox="0 0 48 48" fill="none" xmlns="http://www.w3.org/2000/svg">
<circle cx="24" cy="24" r="24" fill="url(#paint0_linear_415_376)"/>
<path d="M24.3555 12C20.9989 12 20.5799 12.0154 19.262 12.0741C17.9461 12.1359 17.0503 12.3429 16.2627 12.6487C15.4503 12.9637 14.7604 13.3869 14.0737 14.0737C13.3869 14.7604 12.9627 15.4493 12.6487 16.2627C12.3429 17.0503 12.1349 17.9461 12.0741 19.262C12.0124 20.5799 12 20.9989 12 24.3555C12 27.7121 12.0154 28.1312 12.0741 29.4491C12.1359 30.7639 12.3429 31.6607 12.6487 32.4484C12.9589 33.273 13.4452 34.02 14.0737 34.6374C14.6907 35.2663 15.4378 35.7527 16.2627 36.0624C17.0514 36.3672 17.9471 36.5762 19.262 36.6369C20.5799 36.6987 20.9989 36.7111 24.3555 36.7111C27.7121 36.7111 28.1312 36.6956 29.4491 36.6369C30.7639 36.5751 31.6607 36.3672 32.4484 36.0624C33.2728 35.7518 34.0197 35.2655 34.6374 34.6374C35.2665 34.0205 35.7529 33.2734 36.0624 32.4484C36.3672 31.6607 36.5762 30.7639 36.6369 29.4491C36.6987 28.1312 36.7111 27.7121 36.7111 24.3555C36.7111 20.9989 36.6956 20.5799 36.6369 19.262C36.5751 17.9471 36.3672 17.0493 36.0624 16.2627C35.752 15.4382 35.2657 14.6912 34.6374 14.0737C34.0208 13.4442 33.2736 12.9577 32.4484 12.6487C31.6607 12.3429 30.7639 12.1349 29.4491 12.0741C28.1312 12.0124 27.7121 12 24.3555 12ZM24.3555 14.224C27.6534 14.224 28.0467 14.2405 29.3492 14.2971C30.5539 14.3537 31.2077 14.5535 31.6422 14.7244C32.2209 14.9478 32.6306 15.2155 33.0651 15.6469C33.4966 16.0794 33.7643 16.4902 33.9877 17.0689C34.1565 17.5034 34.3584 18.1572 34.4129 19.3618C34.4716 20.6653 34.485 21.0566 34.485 24.3555C34.485 27.6545 34.4696 28.0467 34.4088 29.3492C34.346 30.5539 34.1452 31.2077 33.9753 31.6422C33.7743 32.1784 33.4584 32.6641 33.0497 33.0651C32.6503 33.4742 32.165 33.7893 31.6288 33.9877C31.1964 34.1565 30.5323 34.3584 29.3276 34.4129C28.0159 34.4716 27.6297 34.485 24.3246 34.485C21.0185 34.485 20.6324 34.4696 19.3217 34.4088C18.116 34.346 17.4519 34.1452 17.0194 33.9753C16.4829 33.7768 15.9977 33.4605 15.5996 33.0497C15.1863 32.653 14.8693 32.167 14.6729 31.6288C14.503 31.1964 14.3033 30.5323 14.2405 29.3276C14.1941 28.0303 14.1777 27.6297 14.1777 24.3401C14.1777 21.0494 14.1941 20.6478 14.2405 19.3351C14.3033 18.1304 14.503 17.4673 14.6729 17.0349C14.8891 16.448 15.1661 16.0464 15.5996 15.613C16.031 15.1815 16.4336 14.9035 17.0194 14.6884C17.4519 14.5174 18.1016 14.3167 19.3062 14.2549C20.619 14.2086 21.0051 14.1931 24.3092 14.1931L24.3555 14.224V14.224ZM24.3555 18.011C23.5223 18.011 22.6973 18.1751 21.9276 18.4939C21.1578 18.8128 20.4584 19.2801 19.8692 19.8692C19.2801 20.4584 18.8128 21.1578 18.4939 21.9276C18.1751 22.6973 18.011 23.5223 18.011 24.3555C18.011 25.1887 18.1751 26.0137 18.4939 26.7835C18.8128 27.5532 19.2801 28.2527 19.8692 28.8418C20.4584 29.431 21.1578 29.8983 21.9276 30.2171C22.6973 30.536 23.5223 30.7001 24.3555 30.7001C26.0382 30.7001 27.652 30.0316 28.8418 28.8418C30.0316 27.652 30.7001 26.0382 30.7001 24.3555C30.7001 22.6728 30.0316 21.0591 28.8418 19.8692C27.652 18.6794 26.0382 18.011 24.3555 18.011V18.011ZM24.3555 28.474C22.0801 28.474 20.237 26.631 20.237 24.3555C20.237 22.0801 22.0801 20.237 24.3555 20.237C26.631 20.237 28.474 22.0801 28.474 24.3555C28.474 26.631 26.631 28.474 24.3555 28.474ZM32.434 17.7608C32.4197 18.1444 32.2572 18.5076 31.9807 18.774C31.7042 19.0404 31.3353 19.1892 30.9513 19.1892C30.5674 19.1892 30.1984 19.0404 29.9219 18.774C29.6454 18.5076 29.483 18.1444 29.4687 17.7608C29.4687 17.3675 29.6249 16.9904 29.9029 16.7124C30.181 16.4343 30.5581 16.2781 30.9513 16.2781C31.3445 16.2781 31.7217 16.4343 31.9997 16.7124C32.2778 16.9904 32.434 17.3675 32.434 17.7608V17.7608Z" fill="white"/>
<defs>
<linearGradient id="paint0_linear_415_376" x1="-1.71429" y1="3.99594e-07" x2="48" y2="48" gradientUnits="userSpaceOnUse">
<stop stop-color="#0A1A17"/>
<stop offset="1" stop-color="#2DA29B"/>
</linearGradient>
</defs>
</svg>
