<svg width="48" height="48" viewBox="0 0 48 48" fill="none" xmlns="http://www.w3.org/2000/svg">
<circle cx="24" cy="24" r="24" fill="url(#paint0_linear_415_377)"/>
<path d="M33.0528 33.0579H29.3935V27.3239C29.3935 25.9566 29.3657 24.197 27.4866 24.197C25.5787 24.197 25.2873 25.6848 25.2873 27.223V33.0579H21.628V21.2666H25.1432V22.8739H25.1906C25.6817 21.9472 26.8761 20.9691 28.6604 20.9691C32.3681 20.9691 33.0538 23.4093 33.0538 26.5857V33.0579H33.0528ZM17.4951 19.6532C17.216 19.6534 16.9395 19.5984 16.6816 19.4916C16.4237 19.3848 16.1894 19.2281 15.9921 19.0307C15.7948 18.8332 15.6384 18.5987 15.5318 18.3407C15.4252 18.0827 15.3706 17.8062 15.371 17.527C15.3712 17.1067 15.496 16.6959 15.7297 16.3465C15.9634 15.9972 16.2954 15.725 16.6838 15.5643C17.0722 15.4036 17.4996 15.3618 17.9118 15.444C18.324 15.5262 18.7025 15.7287 18.9996 16.0261C19.2967 16.3234 19.4989 16.7022 19.5807 17.1145C19.6625 17.5268 19.6202 17.954 19.4591 18.3423C19.2981 18.7305 19.0256 19.0623 18.676 19.2956C18.3264 19.529 17.9154 19.6534 17.4951 19.6532V19.6532ZM19.3299 33.0579H15.6603V21.2666H19.3299V33.0579ZM34.8835 12H13.8235C12.8155 12 12 12.7969 12 13.7802V34.9308C12 35.9152 12.8155 36.7111 13.8235 36.7111H34.8804C35.8874 36.7111 36.7111 35.9152 36.7111 34.9308V13.7802C36.7111 12.7969 35.8874 12 34.8804 12H34.8835Z" fill="white"/>
<defs>
<linearGradient id="paint0_linear_415_377" x1="-1.71429" y1="3.99594e-07" x2="48" y2="48" gradientUnits="userSpaceOnUse">
<stop stop-color="#0A1A17"/>
<stop offset="1" stop-color="#2DA29B"/>
</linearGradient>
</defs>
</svg>
