<svg width="72" height="66" viewBox="0 0 72 66" fill="none" xmlns="http://www.w3.org/2000/svg">
<path d="M25.8753 65.5954L27.6128 61.4177H28.3523L30.0775 65.5954H29.3921L28.9049 64.3725H27.0173L26.53 65.5954H25.8743H25.8753ZM27.2277 63.8523H28.7006L27.9672 62.014L27.2277 63.8523Z" fill="white"/>
<path d="M33.5228 65.6613C33.2102 65.6613 32.9201 65.6066 32.6546 65.4971C32.388 65.3875 32.153 65.2344 31.9508 65.0377C31.7486 64.841 31.5923 64.6118 31.482 64.3512C31.3717 64.0906 31.3165 63.8087 31.3165 63.5066C31.3165 63.2044 31.3717 62.9164 31.482 62.6558C31.5923 62.3952 31.7486 62.1671 31.9508 61.9724C32.153 61.7777 32.389 61.6256 32.6576 61.5161C32.9263 61.4066 33.2143 61.3518 33.5238 61.3518C33.7444 61.3518 33.96 61.3812 34.1704 61.438C34.3808 61.4948 34.5749 61.5779 34.7536 61.6854C34.9324 61.7929 35.0897 61.9237 35.2255 62.0789L34.7986 62.5027C34.6423 62.3161 34.4523 62.1732 34.2276 62.0758C34.0029 61.9785 33.769 61.9298 33.5238 61.9298C33.2991 61.9298 33.0928 61.9693 32.9048 62.0494C32.7169 62.1296 32.5514 62.2401 32.4084 62.3841C32.2664 62.527 32.1561 62.6944 32.0775 62.885C31.9988 63.0756 31.96 63.2825 31.96 63.5056C31.96 63.7286 31.9988 63.9355 32.0775 64.1261C32.1561 64.3168 32.2654 64.4841 32.4084 64.627C32.5504 64.77 32.7189 64.8816 32.913 64.9617C33.1071 65.0418 33.3144 65.0813 33.535 65.0813C33.7792 65.0813 34.0121 65.0316 34.2327 64.9323C34.4533 64.8329 34.6392 64.696 34.7914 64.5206L35.2061 64.9383C35.0703 65.0854 34.913 65.2141 34.7342 65.3237C34.5555 65.4332 34.3634 65.5163 34.1571 65.5741C33.9508 65.6319 33.7393 65.6603 33.5228 65.6603V65.6613Z" fill="white"/>
<path d="M36.6065 65.5954L38.344 61.4177H39.0835L40.8087 65.5954H40.1233L39.6361 64.3725H37.7485L37.2612 65.5954H36.6055H36.6065ZM37.9589 63.8523H39.4318L38.6984 62.014L37.9589 63.8523Z" fill="white"/>
<path d="M42.4491 65.5954V61.4177H43.9282C44.2489 61.4177 44.542 61.4694 44.8086 61.5729C45.0752 61.6763 45.3081 61.8223 45.5093 62.0119C45.7095 62.2005 45.8658 62.4226 45.9782 62.6771C46.0905 62.9316 46.1467 63.2085 46.1467 63.5066C46.1467 63.8047 46.0905 64.0866 45.9782 64.3391C45.8658 64.5916 45.7106 64.8126 45.5124 65.0012C45.3142 65.1898 45.0803 65.3368 44.8117 65.4403C44.5431 65.5437 44.2489 65.5954 43.9282 65.5954H42.4491ZM43.0804 65.0347H43.9404C44.161 65.0347 44.3653 64.9972 44.5533 64.9211C44.7412 64.8451 44.9067 64.7386 45.0497 64.5986C45.1917 64.4597 45.302 64.2975 45.3806 64.1119C45.4593 63.9264 45.4981 63.7266 45.4981 63.5116C45.4981 63.2967 45.4583 63.0898 45.3776 62.9032C45.2969 62.7167 45.1876 62.5544 45.0466 62.4165C44.9067 62.2796 44.7422 62.1721 44.5533 62.0941C44.3653 62.016 44.158 61.9775 43.9343 61.9775H43.0804V65.0347Z" fill="white"/>
<path d="M48.0221 65.5954V61.4177H51.1242V61.9663H48.6533V63.2196H50.2641V63.7509H48.6533V65.0458H51.1477V65.5944H48.0221V65.5954Z" fill="white"/>
<path d="M52.9995 65.5954V61.4177H53.8351L55.1578 64.0917L56.4744 61.4177H57.3222V65.5954H56.7155V62.1823L55.1527 65.2973L53.5838 62.1823V65.5954H52.9995Z" fill="white"/>
<path d="M60.6337 65.5954V63.9365L58.9382 61.4177H59.6715L60.9637 63.3869L62.2619 61.4177H62.9595L61.264 63.9537V65.5944H60.6327L60.6337 65.5954Z" fill="white"/>
<path d="M55.0843 40.5577C55.2681 40.4218 55.3887 40.3346 55.5072 40.2454C57.7063 38.5946 60.1802 37.972 62.9095 38.2752C65.5489 38.5693 67.7582 39.6725 69.4222 41.7451C70.6642 43.2925 71.3466 45.0761 71.3547 47.0635C71.3752 52.5868 71.3629 58.1101 71.3721 63.6333C71.3721 63.9243 71.274 63.9984 70.9972 63.9943C70.1566 63.9791 69.3159 63.972 68.4763 63.9973C68.1311 64.0075 68.0555 63.898 68.0555 63.5705C68.0657 58.325 68.0667 53.0806 68.0606 47.8352C68.0575 44.7719 66.0555 42.2551 63.0433 41.6092C59.0638 40.7565 55.7094 43.3361 55.1752 46.7593C55.1149 47.1447 55.0894 47.5391 55.0884 47.9295C55.0812 50.8741 55.0782 53.8188 55.0924 56.7645C55.0945 57.1153 54.9934 57.2177 54.643 57.2076C53.8289 57.1843 53.0128 57.1873 52.1987 57.2066C51.88 57.2137 51.7564 57.1447 51.7575 56.7929C51.7667 49.0581 51.7636 41.3233 51.7554 33.5885C51.7554 33.2975 51.829 33.191 52.1385 33.1991C52.9658 33.2194 53.7942 33.2234 54.6216 33.1981C54.9821 33.1869 55.0976 33.2772 55.0945 33.6534C55.0761 35.7889 55.0853 37.9254 55.0853 40.0608C55.0853 40.1998 55.0853 40.3377 55.0853 40.5597L55.0843 40.5577Z" fill="#00A29B"/>
<path d="M25.382 49.34C22.8743 49.34 20.3667 49.34 17.8591 49.34C17.4311 49.34 17.4035 49.3653 17.5618 49.7658C18.5087 52.1569 20.2452 53.5836 22.8273 53.9222C24.8171 54.1838 26.5801 53.6393 28.0847 52.312C28.2461 52.17 28.3319 52.1579 28.4728 52.3353C29.0397 53.0502 29.6117 53.761 30.2011 54.4566C30.4227 54.7182 30.2113 54.8095 30.0642 54.9301C28.7016 56.0476 27.1501 56.7726 25.4065 57.0656C20.9918 57.8069 16.8897 55.6927 14.949 52.0717C12.5558 47.6081 14.139 42.2328 18.6088 39.5731C24.097 36.306 31.3778 39.1046 33.1592 45.1694C33.5279 46.4227 33.5984 47.7003 33.439 48.9942C33.4023 49.2933 33.2521 49.3461 32.9814 49.345C30.4483 49.3369 27.9151 49.34 25.382 49.34ZM23.6762 46.0931C25.6118 46.0931 27.5474 46.0931 29.482 46.0931C29.9692 46.0931 29.9641 46.0942 29.8078 45.651C29.0091 43.3797 26.6516 41.3405 23.4576 41.4531C20.7712 41.5474 18.4495 43.1667 17.5465 45.6754C17.4464 45.9532 17.5411 46.0925 17.8305 46.0931C19.7784 46.0931 21.7273 46.0931 23.6751 46.0931H23.6762Z" fill="#00A29B"/>
<path d="M38.7934 26.5179C37.9497 26.1832 37.1479 25.8699 36.3511 25.5475C35.4329 25.1753 35.4339 25.1723 35.4339 24.1948C35.4339 19.936 35.438 15.6782 35.4257 11.4194C35.4257 11.0706 35.5177 10.9712 35.869 10.9834C37.4523 11.0361 38.7679 12.3431 38.7914 13.9179C38.7975 14.3316 38.7914 14.7453 38.7914 15.1651C38.9691 15.1651 39.0365 15.0414 39.1305 14.9684C43.1263 11.8889 48.7218 12.2073 52.3019 15.7573C54.1057 17.546 55.0863 19.7139 55.0863 22.2773C55.0863 25.4866 55.0812 28.6969 55.0894 31.9063C55.0894 32.1942 55.022 32.3058 54.7094 32.2987C53.8565 32.2784 53.0026 32.2754 52.1507 32.2997C51.8034 32.3098 51.7248 32.1902 51.7258 31.8657C51.736 28.7193 51.7023 25.5728 51.7401 22.4264C51.7758 19.4908 49.7023 17.0511 47.065 16.3576C43.0559 15.303 39.5901 17.8269 38.9139 21.1366C38.8404 21.4955 38.7903 21.8575 38.7914 22.2256C38.7934 23.5144 38.7914 24.8032 38.7914 26.092C38.7914 26.2157 38.7914 26.3394 38.7914 26.5179H38.7934Z" fill="#00A29B"/>
<path d="M28.3768 26.7531C29.768 25.0709 30.292 23.1757 29.8354 21.0575C29.5392 19.6815 28.8252 18.5367 27.7701 17.5946C25.7772 15.8161 22.6711 15.4764 20.3248 16.7895C17.8478 18.1757 16.5465 20.9408 17.045 23.6138C17.5343 26.241 19.7385 28.6473 23.0132 28.9291C22.8161 29.1979 22.5996 29.423 22.5087 29.7474C22.285 30.5495 22.81 31.2492 23.4351 31.4763C23.8978 31.6446 24.3523 31.8383 24.8937 32.0543C24.3769 32.2034 23.9274 32.1912 23.4943 32.1892C19.3963 32.1709 15.903 29.7799 14.423 26.1863C11.9971 20.2939 15.6497 13.8337 22.0163 12.8522C27.4708 12.0105 32.3216 15.7796 33.1459 20.9348C33.3502 22.2124 33.294 23.4748 32.9978 24.7312C32.961 24.8894 32.912 25.0151 32.7485 25.08C31.3318 25.6438 29.9161 26.2096 28.4984 26.7734C28.4789 26.7805 28.4514 26.7663 28.3758 26.7531H28.3768Z" fill="#00A29B"/>
<path d="M43.9721 57.1964C39.5278 57.2684 35.5738 53.8908 34.6351 49.8835C33.2674 44.0499 37.4972 39.2 42.3694 38.3675C45.3367 37.8605 48.0272 38.5033 50.4122 40.3458C50.5021 40.4157 50.5849 40.4948 50.6768 40.5638C50.832 40.6814 50.8453 40.7879 50.6901 40.9268C49.9924 41.5555 49.2989 42.1872 48.6114 42.826C48.447 42.9781 48.3459 42.8767 48.2213 42.7834C47.3214 42.1061 46.3163 41.6812 45.1958 41.52C41.1723 40.942 38.0764 43.8735 37.773 47.0595C37.4482 50.4726 40.0069 53.6079 43.4287 53.9334C45.209 54.1027 46.8096 53.6961 48.2345 52.6263C48.3877 52.5107 48.4664 52.5452 48.5808 52.6628C49.2172 53.3179 49.8515 53.9739 50.5031 54.6138C50.6993 54.8064 50.6441 54.9028 50.4582 55.0457C48.6053 56.4775 46.5155 57.2157 43.9741 57.1964H43.9721Z" fill="#00A29B"/>
<path d="M3.12589 37.2632C3.12589 36.0505 3.13202 34.8367 3.12078 33.624C3.11874 33.3664 3.18718 33.2691 3.46296 33.2731C4.35366 33.2883 5.24537 33.2914 6.13606 33.2721C6.43841 33.266 6.49152 33.3806 6.4905 33.6483C6.48131 36.0241 6.49254 38.3989 6.47722 40.7747C6.47518 41.1316 6.562 41.2503 6.93993 41.2472C8.82346 41.231 10.708 41.2493 12.5926 41.2391C12.8918 41.2371 12.9848 41.3182 12.9776 41.6194C12.9572 42.4397 12.9572 43.262 12.9776 44.0824C12.9858 44.3916 12.8765 44.4596 12.5854 44.4596C10.7019 44.4596 8.81835 44.4849 6.93482 44.4758C6.55791 44.4738 6.46088 44.5884 6.47518 44.9473C6.52114 46.0698 6.43534 47.1943 6.53442 48.3179C6.77139 50.9918 8.87555 53.3209 11.5456 53.8381C11.9194 53.9101 12.2994 53.9537 12.6794 53.9821C12.8765 53.9963 12.9787 54.0287 12.9756 54.2579C12.9644 55.1553 12.9664 56.0516 12.9756 56.949C12.9776 57.166 12.9021 57.2309 12.6855 57.2238C8.20855 57.0778 4.38328 54.0348 3.38125 49.8105C3.14632 48.8198 3.11261 47.8119 3.12589 46.7989C3.13406 46.1296 3.11568 45.4594 3.13304 44.7901C3.14019 44.5123 3.06256 44.4139 2.77043 44.421C1.98188 44.4393 1.19129 44.417 0.402743 44.4332C0.114698 44.4393 -0.00685294 44.3683 0.000297114 44.057C0.018683 43.2357 0.0176615 42.4143 0.000297114 41.593C-0.0058315 41.304 0.0932477 41.2269 0.374143 41.233C1.16269 41.2493 1.95328 41.2269 2.74183 41.2452C3.03805 41.2523 3.13815 41.1702 3.13406 40.8649C3.11772 39.6644 3.12691 38.4648 3.12691 37.2642L3.12589 37.2632Z" fill="#00A29B"/>
<path d="M3.12589 16.1132C3.12589 10.9063 3.12589 5.70042 3.12589 0.493523C3.12589 0.17107 3.29341 0.00950636 3.62844 0.00883036C4.44354 0.00883036 5.25865 0.0260684 6.07273 0.000718351C6.42104 -0.0104357 6.49356 0.107188 6.49254 0.431669C6.48233 4.38729 6.48539 8.3429 6.48539 12.2985C6.48539 18.7689 6.48539 25.2392 6.48539 31.7095C6.48539 32.0448 6.31141 32.2128 5.96344 32.2135C5.16161 32.2135 4.35876 32.1942 3.55694 32.2226C3.19024 32.2358 3.11874 32.108 3.11874 31.7724C3.12793 26.5533 3.12589 21.3343 3.12589 16.1142V16.1132Z" fill="#00A19A"/>
<path d="M44.1161 30.1551C43.8199 30.2768 43.5931 30.4025 43.351 30.4613C42.9935 30.5475 42.922 30.7523 42.9282 31.091C42.9506 32.1902 42.9261 33.2893 42.9435 34.3885C42.9476 34.6745 42.8648 34.7505 42.5809 34.7465C41.7678 34.7363 41.7668 34.7485 41.7668 33.9363C41.7668 33.1149 41.7525 32.2926 41.7739 31.4723C41.7831 31.1366 41.6871 31.1265 41.4113 31.238C39.0569 32.1902 36.6964 33.1281 34.343 34.0843C34.0744 34.1938 33.8548 34.1959 33.5851 34.0864C30.4411 32.8148 27.2931 31.5564 24.146 30.292C24.0439 30.2504 23.9233 30.2392 23.8335 30.1155C24.4157 29.8803 24.9907 29.6481 25.5668 29.4169C28.2542 28.338 30.9416 27.2601 33.629 26.1812C33.82 26.1041 33.9896 26.0565 34.2092 26.1447C37.4482 27.4507 40.6912 28.7466 43.9322 30.0456C43.9772 30.0638 44.017 30.0963 44.1151 30.1561L44.1161 30.1551Z" fill="#FD890A"/>
<path d="M8.39752 22.6697C8.39752 19.65 8.40263 16.6303 8.39037 13.6106C8.38935 13.2841 8.46391 13.1736 8.81018 13.1837C9.67533 13.2101 10.5415 13.2 11.4067 13.1878C11.661 13.1837 11.7632 13.2426 11.7621 13.5204C11.755 19.6358 11.755 25.7513 11.7621 31.8667C11.7621 32.1669 11.6498 32.2226 11.3811 32.2186C10.516 32.2054 9.6498 32.1983 8.78464 32.2216C8.44961 32.2307 8.38935 32.106 8.39037 31.8059C8.39956 28.7608 8.3965 25.7158 8.3965 22.6707L8.39752 22.6697Z" fill="#00A19A"/>
<path d="M27.3421 34.4058C27.3421 33.9383 27.3595 33.4709 27.336 33.0044C27.3206 32.6901 27.4187 32.686 27.673 32.7884C29.6362 33.5844 31.6066 34.3642 33.5688 35.1642C33.8497 35.2788 34.0836 35.2778 34.3624 35.1642C36.3134 34.3703 38.2735 33.5976 40.2234 32.8006C40.5298 32.6749 40.5717 32.7418 40.5676 33.0389C40.5523 33.9728 40.5503 34.9077 40.5697 35.8416C40.5748 36.1073 40.4798 36.2127 40.2408 36.2979C38.2459 37.0148 36.2562 37.7418 34.2674 38.4739C34.0652 38.548 33.8926 38.5571 33.6862 38.481C31.674 37.7378 29.6597 37.0006 27.6414 36.2766C27.4064 36.1924 27.3288 36.0849 27.338 35.8446C27.3564 35.366 27.3431 34.8854 27.3431 34.4058H27.3421Z" fill="#FC890A"/>
<path d="M8.06964 10.8566C8.06964 9.77569 8.96442 8.89351 10.0676 8.88539C11.182 8.87728 12.1207 9.77569 12.1196 10.8515C12.1196 11.9406 11.2044 12.8167 10.0717 12.8126C8.9542 12.8086 8.06964 11.9446 8.06964 10.8566Z" fill="#00A19A"/>
<path d="M71.3384 63.0229H68.0351V66H71.3384V63.0229Z" fill="#00A29B"/>
</svg>
