<svg width="48" height="48" viewBox="0 0 48 48" fill="none" xmlns="http://www.w3.org/2000/svg">
<circle cx="24" cy="24" r="24" fill="url(#paint0_linear_415_375)"/>
<path d="M36.1952 17.6667C36.0519 17.1535 35.7787 16.686 35.402 16.3092C35.0253 15.9325 34.5577 15.6593 34.0445 15.516C32.1184 15 24.3665 15 24.3665 15C24.3665 15 16.6342 14.9897 14.6885 15.516C14.1754 15.6593 13.7078 15.9325 13.331 16.3092C12.9543 16.686 12.6811 17.1535 12.5379 17.6667C12.1728 19.6387 11.9928 21.6405 12.0002 23.6459C11.9942 25.6438 12.1742 27.6379 12.5379 29.6025C12.6811 30.1157 12.9543 30.5832 13.331 30.96C13.7078 31.3367 14.1754 31.6099 14.6885 31.7531C16.6126 32.2702 24.3665 32.2702 24.3665 32.2702C24.3665 32.2702 32.0978 32.2702 34.0445 31.7531C34.5577 31.6099 35.0253 31.3367 35.402 30.96C35.7787 30.5832 36.0519 30.1157 36.1952 29.6025C36.5513 27.6372 36.7237 25.6431 36.7102 23.6459C36.7251 21.6412 36.5527 19.6394 36.1952 17.6667V17.6667ZM21.8924 27.3447V19.9358L28.3444 23.6459L21.8924 27.3447Z" fill="white"/>
<defs>
<linearGradient id="paint0_linear_415_375" x1="-1.71429" y1="3.99594e-07" x2="48" y2="48" gradientUnits="userSpaceOnUse">
<stop stop-color="#0A1A17"/>
<stop offset="1" stop-color="#2DA29B"/>
</linearGradient>
</defs>
</svg>
